<svg xmlns="http://www.w3.org/2000/svg" width="450" height="150" viewBox="0 0 900 300" fill="none" role="img" aria-label="kuri"><defs><linearGradient id="kg" gradientUnits="userSpaceOnUse" x1="191" y1="227" x2="289" y2="81"><stop offset="0" stop-color="#7F52FF"></stop><stop offset="0.48" stop-color="#C711E1"></stop><stop offset="1" stop-color="#E44857"></stop></linearGradient></defs><path d="M191 81L217 81L217 162L218 163L257 120L287 120L245 165L245 167L248 170L250 174L256 181L263 192L269 199L271 203L289 227L259 227L226 182L225 182L217 190L217 227L191 227L191 82Z" fill="url(#kg)"></path><path d="M446 118L461 118L461 141L458 141L457 140L446 140L445 141L442 141L438 143L432 149L429 155L429 158L428 159L428 227L403 227L402 226L402 120L428 120L428 134L429 135L434 126L441 120L445 119ZM292 120L317 120L317 188L318 189L318 193L322 201L325 204L334 208L343 208L351 205L359 197L361 193L361 190L362 189L362 182L363 181L363 120L388 120L388 227L363 227L363 212L362 211L358 217L353 222L344 227L338 228L337 229L320 229L319 228L313 227L306 223L299 216L295 209L295 207L293 203L293 199L292 198L292 121ZM469 120L494 120L494 227L469 227L469 121Z" fill="#0c0a14"></path><path d="M589 136L597 136L597 138L596 139L596 141L595 142L595 144L594 145L594 147L593 148L593 150L592 151L592 153L591 154L591 156L590 157L590 159L589 160L589 162L588 163L588 165L587 166L587 168L586 169L586 171L585 172L585 174L584 175L584 177L583 178L583 180L582 181L582 183L581 184L581 186L580 187L580 189L579 190L579 192L578 193L578 195L577 196L577 198L576 199L576 201L575 202L572 213L570 216L565 232L557 232L557 229L558 228L558 226L559 225L559 223L560 222L560 220L561 219L561 217L562 216L562 214L563 213L563 211L564 210L564 208L565 207L565 205L566 204L566 202L567 201L567 199L568 198L579 163L581 160L588 137ZM633 136L641 136L641 138L640 139L640 141L639 142L639 144L638 145L638 147L637 148L637 150L636 151L636 153L635 154L635 156L634 157L634 159L633 160L633 162L632 163L632 165L631 166L631 168L630 169L630 171L629 172L629 174L628 175L628 177L627 178L627 180L626 181L626 183L625 184L625 186L624 187L624 189L623 190L623 192L622 193L622 195L621 196L621 198L620 199L620 201L619 202L616 213L614 216L609 232L601 232L601 229L602 228L602 226L603 225L603 223L604 222L604 220L605 219L605 217L606 216L606 214L607 213L607 211L608 210L608 208L609 207L609 205L610 204L610 202L611 201L611 199L612 198L623 163L625 160L632 137ZM526 161L539 161L539 181L526 181L526 162ZM527 200L539 200L539 221L526 221L526 201Z" fill="#3f5bd6"></path><g transform="translate(456.14 66.14) scale(0.5271)"><path d="M66 50 L83.2 83.2 L50 66 L16.8 83.2 L34 50 L16.8 16.8 L50 34 L83.2 16.8 Z" fill="#4f63e0"></path></g></svg>