<svg xmlns="http://www.w3.org/2000/svg" width="450" height="150" viewBox="0 0 900 300" fill="none" role="img" aria-label="kuri"><defs><linearGradient id="kg" gradientUnits="userSpaceOnUse" x1="191" y1="227" x2="289" y2="81"><stop offset="0" stop-color="#7F52FF"/><stop offset="0.48" stop-color="#C711E1"/><stop offset="1" stop-color="#E44857"/></linearGradient></defs><path d="M191 81L217 81L217 162L257 120L287 120L245 165L289 227L259 227L226 182L217 190L217 227L191 227Z" fill="url(#kg)"/><path d="M366.75 120L393.98 120L393.98 227L366.75 227L366.75 213.48Q361.53 220.43 353.13 224.39Q344.73 228.35 334.88 228.35L334.88 228.35Q322.32 228.35 312.67 223.04Q303.01 217.73 297.5 207.4Q292 197.06 292 182.77L292 182.77L292 120L319.04 120L319.04 178.91Q319.04 191.66 325.41 198.51Q331.79 205.37 342.8 205.37L342.8 205.37Q354 205.37 360.37 198.51Q366.75 191.66 366.75 178.91L366.75 178.91L366.75 120ZM429.04 136.61Q434.25 128.11 442.66 123.28Q451.06 118.45 461.87 118.45L461.87 118.45L461.87 146.85L454.73 146.85Q441.98 146.85 435.51 152.83Q429.04 158.82 429.04 173.69L429.04 173.69L429.04 227L402 227L402 120L429.04 120L429.04 136.61ZM469 120L496.04 120L496.04 227L469 227L469 120Z" fill="#0c0a14"/><path d="M526 161L539 161L539 181L526 181ZM526 200L539 200L539 221L526 221ZM589 136L597 136L565 232L557 232ZM633 136L641 136L609 232L601 232Z" fill="#3f5bd6"/><g transform="translate(456.14 66.14) scale(0.5271)"><path d="M66 50L83.2 83.2L50 66L16.8 83.2L34 50L16.8 16.8L50 34L83.2 16.8Z" fill="#4f63e0"/></g></svg>